<?xml version="1.0" encoding="utf-8"?>
<!-- Generator: Adobe Illustrator 19.1.0, SVG Export Plug-In . SVG Version: 6.00 Build 0)  -->
<svg version="1.1" id="Layer_1" xmlns="http://www.w3.org/2000/svg" xmlns:xlink="http://www.w3.org/1999/xlink" x="0px" y="0px"
	 viewBox="0 0 300 100" style="enable-background:new 0 0 300 100;" xml:space="preserve">
<style type="text/css">
	.st0{fill:#8D95B9;}
</style>
<path class="st0" d="M283.1,62.5c-0.9-0.7-2.1-0.5-2.7,0.3l-1.6,1.9l-0.7,0.8c-0.7,0.8-1.5,1.7-2.3,2.4c-2,1.9-3.8,3.3-5.5,4.2
	c-1.3,0.6-2.9,1.3-4.5,1.1c-0.5,0-1.1-0.2-1.5-0.6c-0.5-0.6-0.7-1.6-0.8-2.3c0-1.3,0.2-2.7,0.6-4l1.2-0.3c0.7-0.2,1.5-0.4,2.2-0.6
	c2.6-0.8,4.7-1.8,6.7-3c4-2.8,5.7-5.8,4.8-8.7c-0.9-2.6-3.8-3.4-6.3-3c-1.8,0.3-3.7,1.4-5.5,3.1c-2.6,2.4-4.7,5.5-6.1,8.9
	c-1.2,1.2-2.2,2.1-3.3,2.9c-0.9,0.7-1.8,1.2-2.6,1.3c-0.5,0.1-1,0-1.3-0.2c-0.2-0.2-0.4-0.5-0.4-0.8c-0.1-1.6,0.6-3.3,1.3-4.7
	c0.5-1.3,1.1-2.5,1.8-3.7l1.1-1.9c0.3-0.5,0.4-1.1,0.2-1.7c-0.2-0.5-0.5-0.9-0.9-1.1c-0.6-0.3-1.1-0.3-1.4-0.2
	c-1,0.3-1.5,1.4-1.9,2.1c-0.1,0.1-0.1,0.3-0.1,0.3l-1.4,2.1c-1.1,1.6-2.3,3.1-3.5,4.6c-2.9,3.6-5.6,6.5-8.4,8.9
	c-1.3,1.2-2.4,2-3.5,2.5c-0.7,0.4-1.4,0.5-1.5,0.4c-0.1-0.2,0-0.8,0.1-1.1c0.2-0.9,0.5-1.9,0.9-2.9c0.6-1.7,1.4-3.3,2.1-5
	c0.3-0.7,0.7-1.4,1-2.2c0.1-0.3,0.3-0.7,0.4-1c0.4-1,0.9-2.1,1.1-3.1c0.5-1.4,0.7-2.5,0.6-3.6c-0.2-1.1-0.8-2.1-1.7-2.6
	c-1-0.6-2.2-0.7-3.3-0.3c-1.9,0.7-3.4,2.3-4.7,3.6l-0.3,0.3c-1.2,1.2-2.3,2.5-3.4,3.7c-0.5,0.6-1,1.2-1.6,1.8l-1.1,1.4
	c-0.1,0.1-0.2,0.1-0.3,0.2l-1.6,1.9l-0.7,0.8c-0.7,0.8-1.5,1.7-2.3,2.4c-2,1.9-3.8,3.3-5.5,4.2c-1.3,0.6-2.9,1.3-4.5,1.1
	c-0.5,0-1.1-0.2-1.5-0.6c-0.5-0.6-0.7-1.6-0.8-2.3c0-1.3,0.2-2.7,0.6-4l1.2-0.3c0.7-0.2,1.5-0.4,2.2-0.6c2.6-0.8,4.7-1.8,6.7-3
	c4-2.8,5.7-5.8,4.9-8.7c-0.9-2.6-3.8-3.4-6.3-3c-1.8,0.3-3.7,1.4-5.5,3.1c-2.6,2.4-4.8,5.7-6.2,9.1c-1,0.9-2,1.8-3.1,2.6
	c-0.7,0.5-1.6,1.2-2.7,1.3c-0.5,0.1-1.1,0-1.4-0.4c-0.3-0.3-0.3-0.9-0.2-1.6c0.2-1.2,0.7-2.4,1.4-3.8l1.8-3.9c0.3-0.5,0.5-1,0.8-1.5
	c0.1-0.3,0.2-0.5,0.4-0.8l0.1-0.3c0.3-0.6,0.8-1.8-0.1-2.8c-0.7-0.7-2-0.9-2.8-0.1c-0.4,0.4-0.5,0.8-0.6,1.1
	c-0.3,0.5-0.5,1.1-0.7,1.5l-2.2,4.2l-0.9,2.1c-0.2,0.6-0.6,1.2-0.9,1.8c-1.5,2.8-3,5-4.5,6.8c-1.6,2-3.3,3.4-5,4
	c-0.6,0.3-1.6,0.4-2.3,0.2c-0.3-0.1-0.3-0.5-0.4-0.8c-0.2-1.4,0.2-3,0.6-4.4c1.1-3.9,2.8-7.8,5.5-12.8c0.1-0.3,0.4-0.7,0.6-1
	l0.1-0.1c0.3-0.6,0.8-1.6,0.1-2.5c-0.6-0.8-1.8-1-2.7-0.5l-0.2,0.1c-0.4,0.4-0.6,0.8-0.8,1.2c-0.7,1.3-1.6,2.7-2.6,4.2
	c-2.6,4.1-4.8,7.3-7.2,10.2c-1.1,1.4-2.4,2.9-3.8,4.1c-1.1,1-2.2,1.9-3.3,2.3c-0.5,0.2-1.1,0.3-1.6,0.3c0,0-0.1-0.1-0.1-0.4
	c-0.1-0.7,0.1-1.4,0.2-2.1c0.3-1,0.6-2.1,1-3.1c0.9-2.3,1.9-4.6,2.8-6.8c0.5-1.1,1-2.3,1.5-3.4L174,54c0.2-0.6,0.3-1.2,0.1-1.7
	c-0.2-0.5-0.6-0.9-1.2-1.1c-1.4-0.4-2.2,0.8-2.6,1.4l-0.2,0.3c-1.6,2.6-3.6,4.9-5.4,7.1l-1.9,2.2c-0.1,0.1-0.2,0.2-0.4,0.3l-6.2,6.9
	l-0.4,0.4c-1.3,1.4-2.7,2.9-4.3,3.9c-0.7,0.4-1,0.5-1,0.5c0,0-0.2-0.2-0.1-1.3c0.4-1.9,1.5-3.6,2.5-5.3c0.3-0.4,0.5-0.9,0.8-1.3
	c0.3-0.4,0.5-0.9,0.8-1.3c0.6-0.9,1.1-1.8,1.6-2.8c0.5-0.9,1.2-2.3,1.6-3.9c0.3-1.8-0.6-3.3-2.1-3.9c-0.9-0.4-1.8-0.4-2.6-0.3
	c-0.2,0-0.3,0-0.5,0c0,0-0.1,0-0.1,0c0-0.1,0.1-0.2,0.1-0.4c0.1-0.2,0.2-0.3,0.3-0.5c0.2-0.4,0.5-0.9,0.6-1.5c0.1-0.9-0.4-1.7-1.2-2
	c-0.8-0.3-1.7-0.1-2.2,0.6l-4.2,5c-1.7,1.9-3.4,3.9-5.2,5.8l-0.3,0.2c-0.5,0.5-1.2,1.1-1.5,1.8l-1.3,1.6l-0.7,0.8
	c-0.7,0.8-1.5,1.7-2.3,2.4c-2,1.9-3.8,3.3-5.5,4.2c-1.3,0.6-2.9,1.3-4.5,1.1c-0.5,0-1.1-0.2-1.5-0.6c-0.5-0.6-0.7-1.6-0.8-2.3
	c0-1.3,0.2-2.7,0.6-4l1.2-0.3c0.7-0.2,1.5-0.4,2.2-0.6c2.6-0.8,4.7-1.8,6.7-3c4-2.8,5.7-5.8,4.9-8.7c-0.9-2.6-3.8-3.4-6.3-3
	c-1.8,0.3-3.7,1.4-5.5,3.1c-2.7,2.5-4.9,5.8-6.3,9.5l-2,2.3l-0.7,0.8c-1.7,2.1-3.2,4-5.3,5.5c-1,0.7-2.5,1.4-3.4,1.1
	c-0.3-0.1-0.6-0.3-0.7-0.7c-0.6-1.2-0.3-2.9,0-4.6c0.5-2.7,1.3-5.3,1.9-7.2l2.1-5.7c0-0.1,0.1-0.3,0.2-0.5c0.1-0.2,0.1-0.4,0.2-0.7
	h7.9c0.7,0,1.4-0.4,1.7-1c0.3-0.6,0.4-1.2,0.1-1.8c-0.6-1.3-2.1-1.2-2.9-1.1c-0.1,0-0.3,0-0.4,0h-4.8c0.8-2.1,1.6-3.9,2.3-5.6
	l1.3-3.4c0-0.1,0.1-0.2,0.1-0.3c0.2-0.5,0.6-1.2,0.5-1.8c-0.1-0.9-0.7-1.6-1.6-1.7c-0.9-0.1-1.8,0.3-2.1,1.2
	c-1.4,3.4-2.9,7-4.6,10.3l-0.6,1.4l-4.3,0c-0.5,0-1.6,0-2.1,1.1c-0.3,0.6-0.3,1.3,0.1,1.9c0.4,0.6,1,0.9,1.8,0.9h2.4
	c-1.6,2.6-3.4,5.3-5.8,8.5c-0.1,0.1-0.3,0.3-0.4,0.5c0,0,0,0,0,0c-0.5,0.6-1,1.3-1.5,2C98,66,97,67.3,96.1,68.3
	c-1.5,1.6-3,3.1-4.7,4.2c-1.3,0.7-2.3,0.9-2.5,0.8c-0.1-0.6,0.2-1.4,0.4-2.1l0.1-0.2c0.2-0.8,0.6-1.7,0.9-2.5c0.1-0.4,0.3-0.7,0.4-1
	c0.4-0.9,0.7-1.7,1.1-2.6c0.8-1.9,1.7-3.8,2.3-5.8c0.5-1.7,1.6-5.2-0.8-7.1c-2.4-1.9-5.9-0.5-7.3,0.3c-2.6,1.3-4.6,3.4-6.5,5.4
	c-0.1,0.1-0.2,0.3-0.3,0.4c0.2-0.9,0.3-2.3,0-3.6c-0.3-1.1-1-2-1.9-2.4c-1-0.5-2.2-0.6-3.3-0.3c-1.8,0.6-3.3,1.9-4.5,3
	c-1.3,1.1-2.6,2.5-4.2,4.3l-2.5,3.2l0.1,0.1c-0.2,0.1-0.5,0.3-0.7,0.5l-1.6,1.9l-0.7,0.8c-0.7,0.8-1.5,1.7-2.3,2.4
	c-2,1.9-3.8,3.3-5.5,4.2c-1.3,0.6-2.9,1.3-4.5,1.1c-0.5,0-1.1-0.2-1.5-0.6c-0.5-0.6-0.7-1.5-0.7-2.3l-0.1-0.1c0,0,0,0,0,0
	c1.7-1.8,3.3-3.7,4.7-5.5c2.9-4,5.6-8.4,7.9-13.2c2.4-4.7,4-9,5.1-13l0,0c0.8-3.3,1.7-7.1,0.8-10.4c-0.7-2.7-2.9-4.3-5.5-3.8
	c-1.4,0.2-2.6,0.8-3.8,1.7c-2.9,2.2-4.7,5.6-6.2,8.6c-1.9,3.8-3.4,7.9-4.6,12.7c-1.3,4.8-2.1,9.1-2.5,13.4c-0.2,2.4-0.3,4.3-0.2,6.2
	c0,0.7,0,1.4,0.1,2c0,0.1,0,0.2,0,0.3l-0.9,0.8c-1.3,1.1-2.4,1.9-3.5,2.6c-3.6,2.3-9,3.8-12.2,0.5c-1.5-1.6-1.8-3.9-0.8-5.6
	c0.5-0.9,0.3-2-0.6-2.7c-0.9-0.5-2-0.3-2.8,0.8c-0.7,1.3-1.1,2.7-1.1,4.1c-0.1,5.5,5,9,9.7,9.2c0.2,0,0.5,0,0.7,0
	c4,0,8.1-1.8,12.4-5.5c0,0.1,0.1,0.2,0.1,0.3c0.9,2,2.7,3.3,5.1,3.6c0.4,0,0.7,0.1,1,0.1c4.1,0,7.8-2.7,10.3-4.8
	c1.3-1.2,2.6-2.4,4-3.9l2.2-2.5l0.1-0.2c0.1-0.2,0.3-0.4,0.5-0.7c0.1-0.1,0.2-0.2,0.3-0.3l1.3-1.8c1.9-2.3,3.7-4.2,5.5-5.8
	c0.7-0.6,1.5-1.2,2.1-1.7c0.6-0.3,0.9-0.3,0.9-0.3c0.1,0.1,0.2,0.4,0.1,0.8l0,0.2c0,0.7-0.1,1.4-0.2,2c-0.4,1.7-1,3.3-1.7,4.9
	l-0.3,0.6C72,66.9,70.5,70,69,73l-0.7,1.6c-0.2,0.5-0.3,1-0.1,1.5c0.2,0.5,0.6,0.9,1,1c0.3,0.1,0.6,0.2,0.8,0.2c0.8,0,1.5-0.4,1.8-1
	c0.6-0.8,1.1-1.7,1.5-2.5l0.4-0.7c1.9-3.4,4-6.6,6.1-9.5c2.1-2.9,4.6-6.1,8-7.8c0.5-0.3,1.1-0.6,1.9-0.7c0.8-0.2,1.2-0.1,1.3-0.1
	c0.1,0.2,0.1,0.7,0,1.1l0,0.2c-0.1,0.9-0.5,1.9-0.9,3.1c-0.7,1.7-1.4,3.5-2.1,5.2c-0.4,0.9-0.7,1.7-1.1,2.6c-0.5,1.3-1.1,2.6-1.4,4
	c-0.3,1.1-0.5,2.2-0.2,3.4c0.2,1,0.8,1.8,1.7,2.2c1.1,0.6,2.8,0.7,4.5,0.1c2.5-0.9,4.5-2.8,6.4-4.6c1.4-1.4,2.7-3,3.9-4.6l0.7-0.8
	c0.4-0.5,0.8-1,1.1-1.6c0,0,0,0,0-0.1c0.1-0.1,0.2-0.3,0.4-0.4l0.2-0.2c0.1-0.2,0.3-0.3,0.4-0.5c-0.2,0.9-0.4,1.8-0.6,2.6
	c-0.4,2.1-0.5,3.9-0.3,5.6c0.4,2.3,1.7,4,3.6,4.4c0.6,0.2,1.1,0.3,1.7,0.3c1.8,0,3.8-0.8,5.7-2.3c1.4-1.1,2.6-2.4,3.7-3.7
	c0.1,0.9,0.3,1.8,0.6,2.6c0.9,2,2.7,3.3,5.1,3.6c0.4,0,0.7,0.1,1,0.1c4.1,0,7.8-2.7,10.3-4.8c1.3-1.2,2.6-2.4,4-3.9l2.2-2.4l0.2-0.3
	c0.1-0.1,0.3-0.4,0.4-0.6c0,0,0.1-0.1,0.1-0.1l1.7-1.8l1.3-1.5c1.4-1.5,2.8-3.1,4.1-4.8c0.9,0.8,2.2,0.9,2.8,1c0.1,0,0.2,0,0.4,0
	c0.2,0,0.8-0.1,1.2,0c-0.1,0.6-0.5,1.4-0.8,2l-0.2,0.4c-0.5,1-1.1,1.8-1.6,2.7c-0.3,0.4-0.5,0.9-0.8,1.3l-0.4,0.7
	c-1.4,2.2-3,4.8-3.5,7.6c-0.2,1.6,0.3,3.4,1.3,4.4c0.7,0.7,1.6,1.1,2.6,1.1c0.2,0,0.3,0,0.5,0c1.8-0.2,3.4-1.4,4.8-2.7
	c2.1-1.8,4-3.9,5.6-5.7l3.2-3.5l0.4-0.5c0,0,0.1,0,0.1-0.1c-0.3,0.8-0.6,1.6-0.9,2.5l-0.1,0.3c-0.5,1.6-1.1,3.5-0.8,5.3
	c0.2,2.2,1.9,3.7,4.3,3.7c2.5,0,4.7-1.5,6.4-3c1.8-1.5,3.4-3.1,4.8-4.8c-0.2,1.3-0.3,2.6,0,3.9c0.4,1.5,1.2,2.7,2.4,3.2
	c1,0.6,2.3,0.7,3.8,0.5c2.7-0.4,4.9-2.1,6.3-3.5c1.5-1.4,2.9-3.1,4.2-5.1c0.7,1,1.8,1.7,3.1,2c2.2,0.5,4.1-0.5,5.1-1.1
	c0.3-0.1,0.5-0.3,0.8-0.4c-0.1,1.5,0,3,0.6,4.4c0.9,2,2.7,3.3,5.1,3.6c0.4,0,0.7,0.1,1,0.1c4.1,0,7.8-2.7,10.3-4.8
	c1.3-1.2,2.6-2.4,4-3.9l2.2-2.4l0.2-0.3c0.1-0.1,0.2-0.2,0.3-0.4c0.4-0.3,0.7-0.7,1-1.1l0.2-0.3c0.1-0.1,0.2-0.3,0.4-0.4
	c0.3-0.3,0.6-0.7,0.8-0.9l4.5-4.9c0.7-0.8,1.4-1.3,2.1-1.8l0.1-0.1c0.2-0.2,0.5-0.4,0.6-0.5c0,0.4-0.2,1.2-1,3.1l-0.2,0.4
	c-0.6,1.5-1.3,3.1-2,4.5c-0.5,1-1,2-1.4,3.1c-0.9,2-2.1,4.8-1.8,7.4c0.3,2,1.9,3.3,3.9,3.3c0.2,0,0.3,0,0.5,0
	c1.5-0.1,2.9-0.8,3.8-1.4c1.5-0.9,2.8-2,4.1-3.1c2.2-2,4.2-4.2,6.1-6.4c0.2,1.2,0.6,2.2,1.4,2.9c1.5,1.4,3.8,1.8,5.9,1.1
	c0.9-0.3,1.8-0.8,2.6-1.3c-0.1,1.5,0,3,0.6,4.4c0.9,2,2.7,3.3,5.1,3.6c0.4,0,0.7,0.1,1,0.1c4.1,0,7.8-2.7,10.3-4.8
	c1.3-1.2,2.6-2.4,4-3.9l2.2-2.4l0.2-0.3C283.3,65.3,284.5,63.7,283.1,62.5z M266,61.7c0.9-1.6,1.9-3,3-4.3c1.7-1.8,3.2-2.7,4.6-2.9
	c0.8-0.1,1.3,0,1.5,0.2c0,0,0.2,0.2,0.1,0.5c-0.2,0.9-0.8,1.6-1.3,2.1C272.3,59.2,269.7,60.6,266,61.7z M210.6,61.7
	c0.9-1.6,1.9-3,3-4.3c1.7-1.8,3.2-2.7,4.6-2.9c0.8-0.1,1.3,0,1.5,0.2c0,0,0.2,0.2,0.1,0.5c-0.2,0.9-0.8,1.6-1.3,2.1
	C216.9,59.2,214.3,60.6,210.6,61.7z M124.7,61.7c0.9-1.6,1.9-3,3-4.3c1.7-1.8,3.2-2.7,4.6-2.9c0.8-0.1,1.3,0,1.5,0.2
	c0,0,0.2,0.2,0.1,0.5c-0.2,0.9-0.8,1.6-1.3,2.1C130.9,59.2,128.4,60.6,124.7,61.7z M44.8,65c0-3.3,0.4-6.8,1.2-10.8
	c0.9-4.8,2.2-9.3,3.8-13.4c1.2-3.2,2.8-7,5.2-9.9c0.8-1.1,1.7-1.9,2.5-2.4c0.3-0.1,0.9-0.4,1.4-0.4c0.3,0,0.6,0.1,0.8,0.4
	c0.8,1.4,0.4,3.4,0.2,5.1c-0.2,1.6-0.6,3.3-1.2,5.4c-1.2,4.1-2.9,8.2-5.3,13C50.7,57,47.9,61.3,44.8,65z"/>
</svg>
